<?xml version="1.0" encoding="utf-8"?>
<!-- Generator: Adobe Illustrator 21.0.2, SVG Export Plug-In . SVG Version: 6.00 Build 0)  -->
<svg version="1.1" xmlns="http://www.w3.org/2000/svg" xmlns:xlink="http://www.w3.org/1999/xlink" x="0px" y="0px"
	 viewBox="0 0 109.7 53.8" style="enable-background:new 0 0 109.7 53.8;" xml:space="preserve">
<style type="text/css">
	
	.st0{fill:#EF3942; opacity: 0;
		-webkit-animation: opacidad 1.5s forwards 2s;
		-moz-animation: opacidad 1.5s forwards 2s;
		-o-animation: opacidad 1.5s forwards 2s;
		animation: opacidad 1.5s forwards 2s;
	}
	.st1{fill:#0C9647; opacity: 0;
		-webkit-animation: opacidad 1.5s forwards 2.2s;
		-moz-animation: opacidad 1.5s forwards 2.2s;
		-o-animation: opacidad 1.5s forwards 2.2s;
		animation: opacidad 1.5s forwards 2.2s;
	}
	.st2{fill:#FDD700; opacity: 0;
		-webkit-animation: opacidad 1.5s forwards 2.5s;
		-moz-animation: opacidad 1.5s forwards 2.5s;
		-o-animation: opacidad 1.5s forwards 2.5s;
		animation: opacidad 1.5s forwards 2.5s;
	}
	.st3{fill:#2C70B8; opacity: 0;
		-webkit-animation: opacidad 1.5s forwards 2.8s;
		-moz-animation: opacidad 1.5s forwards 2.8s;
		-o-animation: opacidad 1.5s forwards 2.8s;
		animation: opacidad 1.5s forwards 2.8s;
	}

	.st4{
		fill:none;
		stroke: #000000;
		stroke-width: 0.5; opacity: .3;
		stroke-dasharray: 168;
		stroke-dashoffset: 0;
		stroke-miterlimit:10;
		
		-webkit-animation: lineas 4s forwards;
		-moz-animation: lineas 4s forwards;
		-o-animation: lineas 4s forwards;
		animation: lineas 4s forwards;
	}
	.st5{opacity: 0;
		-webkit-animation: opacidad 1.5s forwards 3s;
		-moz-animation: opacidad 1.5s forwards 3s;
		-o-animation: opacidad 1.5s forwards 3s;
		animation: opacidad 1.5s forwards 3s;
	}

	@keyframes lineas {
		0% { stroke-dashoffset: 168; } 
		80% { stroke: #000000; }
		100% { stroke-dashoffset: 0; stroke: transparent; } 
	}
	@-webkit-keyframes lineas {
		0% { stroke-dashoffset: 168; } 100% { stroke-dashoffset: 0; } 
	}
	@keyframes opacidad {
		0% { opacity: 0; } 100% { opacity: 1; } 
	}
	@-webkit-keyframes opacidad{
		0% { opacity: 0; } 100% { opacity: 1; } 
	}


</style>
<g id="color">
	<g>
		<g>
			<path class="st0" d="M5.9,45c0.1,2.2,1.7,4,3.9,4.4c0.3,0,0.6,0.1,0.9,0.1c1.2,0,2.4-0.6,3.2-1.5c0.8-0.9,1.3-2.1,1.2-3.3
				c0-3.3,1.9-5.6,4.5-8.1c2.7-2,6.6-4.5,12.1-7.5C38.6,25.3,43,21,44,17.6l0-0.1c0.1-0.5,0.2-0.9,0.1-1.3c-0.1-2.2-1.7-4-3.9-4.4
				c-0.3,0-0.6-0.1-0.9-0.1c-1.2,0-2.4,0.6-3.2,1.5c-0.8,0.9-1.3,2.1-1.2,3.3c0,3.5-2.1,5.8-5,8.5c-6.1,4.8-11.7,7.1-11.7,7.1
				C11.5,35.8,7,40,6.1,43.5l0,0.1C5.9,44.1,5.9,44.5,5.9,45z"/>
			<path class="st1" d="M33.4,31c0,0,5,1.3,3.4,8.3l0,0c-0.1,0.4-0.1,0.8-0.1,1.1c0.2,2.1,2,3.6,4,3.4c2.1-0.2,3.6-2,3.4-4
				c-0.3-4.8-9.5-10.8-10.7-10.6c0,0-0.7,0-0.7,0.9C32.7,30.8,33.4,31,33.4,31z"/>
			<g>
				<path class="st2" d="M31.9,33.3c0,0,3.2,0.9,2.2,5.4l0,0c0,0-1.1,4.3-7.9,5.4c-7.8,1.3-7.7-1.6-7.7-1.6
					c-0.1-1.4-0.6-3.1,7.1-7.8C25.6,34.7,29.5,32.3,31.9,33.3z"/>
			</g>
		</g>
		<path class="st3" d="M13.1,12.2c0.4,6.2,9.3,13.6,14.6,16.5c1.4,0.8,3.2,0.6,3.7,0.4c2.4-1.1-0.2-2-0.2-2s-8.4-2.2-5.8-14l0,0
			c0.1-0.6,0.2-1.3,0.1-1.9c-0.3-3.5-3.3-6.1-6.8-5.8C15.4,5.6,12.8,8.7,13.1,12.2z"/>
	</g>
	<path class="st5" d="M97.4,46.1h5.9V20.7h-5.9V46.1z M100.4,18c1.8,0,3.2-1.5,3.2-3.2c0-1.8-1.5-3.2-3.2-3.2s-3.2,1.5-3.2,3.2
		C97.2,16.5,98.6,18,100.4,18z M70.5,36.2c0-2.9-1.1-5.8-3.5-7.5c1.7-1.7,2.5-3.9,2.5-6.1c0-5.1-2.7-9.4-10.8-9.4H47.2v32.9h11.7
		C67.6,46.1,70.5,41.8,70.5,36.2z M53.1,19.1h5.7c3.7,0,4.3,1.8,4.3,3.6c0,1.8-0.7,3.6-3.9,3.6h-6.1V19.1z M53.1,32.1h6.1
		c3.6,0,5,1.3,5,4.2c0,2-0.9,4.1-5.1,4.1h-6V32.1z M85.4,40.8c-3.8,0-6.8-3.2-6.8-7.2v-0.1c0-4,3-7.1,6.7-7.1c2,0,3.6,0.7,5.3,2.5
		l4-4.3c-2-1.9-4.8-4-9.3-4c-7,0-12.7,5.8-12.7,12.9v0.1c0,7.1,5.7,12.9,12.7,12.9c3.5,0,6.5-1.3,9.1-3.8l-4.2-4.1
		C88.7,40.2,87.2,40.8,85.4,40.8z"/>
</g>
<g id="lineas">
	<path class="st4" d="M97.4,46.1h5.9V20.7h-5.9V46.1z M100.4,18c1.8,0,3.2-1.5,3.2-3.2c0-1.8-1.5-3.2-3.2-3.2s-3.2,1.5-3.2,3.2
		C97.2,16.5,98.6,18,100.4,18z M70.5,36.2c0-2.9-1.1-5.8-3.5-7.5c1.7-1.7,2.5-3.9,2.5-6.1c0-5.1-2.7-9.4-10.8-9.4H47.2v32.9h11.7
		C67.6,46.1,70.5,41.8,70.5,36.2z M53.1,19.1h5.7c3.7,0,4.3,1.8,4.3,3.6c0,1.8-0.7,3.6-3.9,3.6h-6.1V19.1z M53.1,32.1h6.1
		c3.6,0,5,1.3,5,4.2c0,2-0.9,4.1-5.1,4.1h-6V32.1z M85.4,40.8c-3.8,0-6.8-3.2-6.8-7.2v-0.1c0-4,3-7.1,6.7-7.1c2,0,3.6,0.7,5.3,2.5
		l4-4.3c-2-1.9-4.8-4-9.3-4c-7,0-12.7,5.8-12.7,12.9v0.1c0,7.1,5.7,12.9,12.7,12.9c3.5,0,6.5-1.3,9.1-3.8l-4.2-4.1
		C88.7,40.2,87.2,40.8,85.4,40.8z"/>
	<g>
		<path class="st4" d="M19.6,36.5c2.7-2,6.6-4.5,12.1-7.5C38.6,25.3,43,21,44,17.6l0-0.1c0.1-0.5,0.2-0.9,0.1-1.3
			c-0.1-2.2-1.7-4-3.9-4.4c-0.3,0-0.6-0.1-0.9-0.1c-1.2,0-2.4,0.6-3.2,1.5c-0.8,0.9-1.3,2.1-1.2,3.3c0,3.5-2.1,5.8-5,8.5
			c-0.4,0.3-0.7,0.5-1.1,0.8c-2.2-1.6-5-5.3-3.4-12.8l0,0c0.1-0.6,0.2-1.3,0.1-1.9c-0.3-3.5-3.3-6.1-6.8-5.8
			c-3.5,0.3-6.1,3.3-5.8,6.8c0.4,5.6,7.7,12.2,13.1,15.6c-4.4,2.9-7.9,4.4-7.9,4.4C11.5,35.8,7,40,6.1,43.5l0,0.1
			c-0.1,0.5-0.2,0.9-0.1,1.3c0.1,2.2,1.7,4,3.9,4.4c0.3,0,0.6,0.1,0.9,0.1c1.2,0,2.4-0.6,3.2-1.5c0.8-0.9,1.3-2.1,1.2-3.3
			C15.1,41.3,17,39,19.6,36.5z"/>
		<path class="st4" d="M33.4,29.1c0,0-0.7,0-0.7,0.9c0,0.7,0.7,0.9,0.7,0.9s5,1.3,3.4,8.3l0,0c-0.1,0.4-0.1,0.8-0.1,1.1
			c0.2,2.1,2,3.6,4,3.4c2.1-0.2,3.6-2,3.4-4C43.8,34.9,34.7,29,33.4,29.1z"/>
		<path class="st4" d="M31.9,33.3c-2.3-0.9-6.2,1.5-6.2,1.5c-7.7,4.7-7.2,6.4-7.1,7.8c0,0-0.1,2.8,7.7,1.6c6.9-1.1,7.9-5.4,7.9-5.4
			l0,0C35.1,34.1,31.9,33.3,31.9,33.3z"/>
	</g>
</g>
</svg>
