<?xml version="1.0" encoding="utf-8"?>
<!-- Generator: Adobe Illustrator 22.0.1, SVG Export Plug-In . SVG Version: 6.00 Build 0)  -->
<svg version="1.1" id="Layer_1" xmlns="http://www.w3.org/2000/svg" xmlns:xlink="http://www.w3.org/1999/xlink" x="0px" y="0px"
	 viewBox="0 0 58 58" style="enable-background:new 0 0 58 58;" xml:space="preserve">
<style type="text/css">
	.st0{fill:url(#SVGID_1_);}
</style>
<linearGradient id="SVGID_1_" gradientUnits="userSpaceOnUse" x1="0.9998" y1="29" x2="57.0002" y2="29">
	<stop  offset="0" style="stop-color:#009729"/>
	<stop  offset="1" style="stop-color:#0070BE"/>
</linearGradient>
<path class="st0" d="M56.7,32.3c-0.4-0.4-1-0.4-1.4,0L53,34.6L39.4,21l7.3-7.3c0.4-0.4,0.4-1,0-1.4c-0.4-0.4-1-0.4-1.4,0l-8,8
	C37.1,20.5,37,20.7,37,21h-6.5c-0.5,0-1,0.1-1.5,0.2c-0.5-0.1-1-0.2-1.5-0.2H21c0-0.3-0.1-0.5-0.3-0.7l-8-8c-0.4-0.4-1-0.4-1.4,0
	c-0.4,0.4-0.4,1,0,1.4l7.3,7.3L5,34.6l-2.3-2.3c-0.4-0.4-1-0.4-1.4,0c-0.4,0.4-0.4,1,0,1.4l3,3C4.5,36.9,4.7,37,5,37
	c0.3,0,0.5-0.1,0.7-0.3l1.4-1.4c0.1,1.5,0.7,2.9,1.7,3.9l0.8,0.8c-1,1.5-0.8,3.5,0.5,4.8c0.6,0.6,1.3,0.9,2.1,1.1
	c-0.5,1.3-0.2,2.9,0.9,3.9c0.7,0.7,1.7,1.1,2.7,1.1c0.1,0,0.1,0,0.2,0c-0.1,1,0.3,2.1,1.1,2.9c0.7,0.7,1.7,1.1,2.7,1.1
	c0.8,0,1.6-0.3,2.3-0.8c0.2,0.6,0.5,1.2,1,1.7c0.7,0.7,1.7,1.1,2.7,1.1c1,0,2-0.4,2.7-1.1l0.3-0.3c0,0,0.1-0.1,0.1-0.1l0.5,0.5
	c0.7,0.7,1.7,1.1,2.7,1.1c1,0,2-0.4,2.7-1.1c0.5-0.5,0.8-1.1,1-1.7c0.7,0.5,1.5,0.8,2.3,0.8c1,0,2-0.4,2.7-1.1
	C41.7,53.1,42,52,42,51c0.1,0,0.1,0,0.2,0c1,0,2-0.4,2.7-1.1c1.1-1.1,1.4-2.6,0.9-3.9c1-0.2,2-0.7,2.6-1.6c0.9-1.3,0.8-2.9,0-4.2
	l0.8-0.8c1.1-1.1,1.7-2.4,1.7-3.9l1.4,1.4c0.2,0.2,0.5,0.3,0.7,0.3c0.3,0,0.5-0.1,0.7-0.3l3-3C57.1,33.3,57.1,32.7,56.7,32.3
	 M11.5,43.5c-0.7-0.7-0.7-1.9,0-2.6l1.3-1.3c0.4-0.4,0.8-0.5,1.3-0.5s0.9,0.2,1.3,0.5c0.7,0.7,0.7,1.9,0,2.6l-1.3,1.3
	C13.4,44.2,12.2,44.2,11.5,43.5 M14.5,48.5c-0.7-0.7-0.7-1.9,0-2.6l2.3-2.3c0.4-0.4,0.8-0.5,1.3-0.5s0.9,0.2,1.3,0.5
	c0.7,0.7,0.7,1.9,0,2.6l-2.3,2.3C16.4,49.2,15.2,49.2,14.5,48.5 M23.5,50.1l-2.3,2.3c-0.7,0.7-1.9,0.7-2.6,0c-0.7-0.7-0.7-1.9,0-2.6
	l2.3-2.3c0.4-0.4,0.8-0.5,1.3-0.5c0.5,0,0.9,0.2,1.3,0.5C24.2,48.2,24.2,49.4,23.5,50.1 M27.5,54.1l-0.3,0.3c-0.7,0.7-1.9,0.7-2.6,0
	c-0.7-0.7-0.7-1.9,0-2.6l0.3-0.3c0.4-0.4,0.8-0.5,1.3-0.5c0.5,0,0.9,0.2,1.3,0.5C28.2,52.2,28.2,53.4,27.5,54.1 M46.7,43.2
	c-0.3,0.5-0.8,0.8-1.4,0.8c-0.5,0.1-1.1-0.1-1.5-0.5l-3.2-3.2c-0.4-0.4-1-0.4-1.4,0c-0.4,0.4-0.4,1,0,1.4l3.2,3.2l1,1
	c0.7,0.7,0.7,1.9,0,2.6c-0.7,0.7-1.9,0.7-2.6,0l-4.2-4.2c-0.4-0.4-1-0.4-1.4,0c-0.4,0.4-0.4,1,0,1.4l4.2,4.2c0.7,0.7,0.7,1.9,0,2.6
	c-0.7,0.7-1.9,0.7-2.6,0l-4.2-4.2c-0.4-0.4-1-0.4-1.4,0c-0.4,0.4-0.4,1,0,1.4l2.2,2.2c0,0,0,0,0,0c0.7,0.7,0.7,1.9,0,2.6
	c-0.7,0.7-1.9,0.7-2.6,0l-0.9-0.9c0.2-1.2-0.1-2.5-1.1-3.4C28.1,49.3,27,49,26,49c0.1-1-0.3-2.1-1.1-2.9C24.1,45.3,23,45,22,45
	c0.1-1-0.3-2.1-1.1-2.9C20.1,41.3,19,41,18,41c0.1-1-0.3-2.1-1.1-2.9c-1.5-1.5-3.9-1.5-5.4,0L11,38.6l-0.8-0.8
	c-1.6-1.6-1.6-4.1,0-5.7l9.2-9.2l6.2,0c0,0,0,0,0,0l-9.2,9.2c-0.4,0.4-0.4,1,0,1.4l0.8,0.8c2.7,2.7,7.2,2.7,9.9,0l1.6-1.6
	c2.7-2.7,7.2-2.7,9.9,0l7.9,7.9C47,41.5,47.2,42.5,46.7,43.2 M47.8,37.8L47,38.6l-7.1-7.1c-3.5-3.5-9.2-3.5-12.7,0l-1.6,1.6
	c-1.9,2-5.1,1.9-7.1,0l0,0l8.5-8.5c0.9-0.9,2.2-1.5,3.5-1.5l8.1,0l9.2,9.2C49.3,33.7,49.3,36.3,47.8,37.8 M28,10h4c0.6,0,1-0.4,1-1
	c0-0.6-0.4-1-1-1h-2V7c0-0.6-0.4-1-1-1s-1,0.4-1,1v1c-1.7,0-3,1.3-3,3c0,1.7,1.3,3,3,3h2c0.6,0,1,0.4,1,1c0,0.6-0.4,1-1,1h-4
	c-0.6,0-1,0.4-1,1c0,0.6,0.4,1,1,1h2v1c0,0.6,0.4,1,1,1s1-0.4,1-1v-1c1.7,0,3-1.3,3-3c0-1.7-1.3-3-3-3h-2c-0.6,0-1-0.4-1-1
	C27,10.4,27.4,10,28,10 M14,10.8c0.5,0.3,1.1,0.2,1.4-0.3C18.3,5.8,23.4,3,29,3s10.7,2.8,13.6,7.5c0.2,0.3,0.5,0.5,0.8,0.5
	c0.2,0,0.4,0,0.5-0.2c0.5-0.3,0.6-0.9,0.3-1.4C41,4.2,35.2,1,29,1S17,4.2,13.7,9.5C13.4,9.9,13.5,10.5,14,10.8"/>
</svg>
