<?xml version="1.0" encoding="utf-8"?>
<!-- Generator: Adobe Illustrator 22.0.1, SVG Export Plug-In . SVG Version: 6.00 Build 0)  -->
<svg version="1.1" id="Layer_1" xmlns="http://www.w3.org/2000/svg" xmlns:xlink="http://www.w3.org/1999/xlink" x="0px" y="0px"
	 viewBox="0 0 58 58" style="enable-background:new 0 0 58 58;" xml:space="preserve">
<style type="text/css">
	.st0{fill:url(#SVGID_1_);}
</style>
<linearGradient id="SVGID_1_" gradientUnits="userSpaceOnUse" x1="1" y1="30.3333" x2="57" y2="30.3333">
	<stop  offset="0" style="stop-color:#009729"/>
	<stop  offset="1" style="stop-color:#0070BE"/>
</linearGradient>
<path class="st0" d="M56.1,41.5h-2.8V17.3c0-2.1-1.7-3.7-3.7-3.7H36.3c-0.3-1-1.1-1.9-2.1-1.9c-1.1,0-1.7,0.7-2,1.1
	c-0.3,0.4-0.4,0.4-0.6,0.4c-0.2,0-0.3-0.1-0.6-0.4c-0.4-0.4-0.9-1.1-2-1.1c-1.1,0-1.7,0.7-2,1.1c-0.3,0.4-0.4,0.4-0.6,0.4
	s-0.3-0.1-0.6-0.4c-0.4-0.4-0.9-1.1-2-1.1c-1,0-1.8,0.9-2.1,1.9H8.5c-2.1,0-3.7,1.7-3.7,3.7v24.3H1.9C1.4,41.5,1,42,1,42.5v1.9
	C1,46.9,3.1,49,5.7,49h46.7c2.6,0,4.7-2.1,4.7-4.7v-1.9C57,42,56.6,41.5,56.1,41.5 M36.1,15.4h13.4c1,0,1.9,0.8,1.9,1.9v24.3h-8.1
	c0.4-1.1,0.6-2.3,0.6-3.7c0-5.1-5.3-10.2-10.3-13.8c0.6-0.5,0.9-1.2,0.9-2.1c0-1-0.5-1.9-1.3-2.4C35,17.3,35.7,16.1,36.1,15.4
	 M26.5,24.7h5c4.1,2.8,10.6,8.2,10.6,13.1c0,1.5-0.3,2.7-0.8,3.7h-8.5c-0.5,0-0.9,0.4-0.9,0.9c0,0.5-0.4,0.9-0.9,0.9h-3.7
	c-0.5,0-0.9-0.4-0.9-0.9c0-0.5-0.4-0.9-0.9-0.9h-8.5c-0.5-1-0.8-2.2-0.8-3.7C15.9,32.9,22.4,27.6,26.5,24.7 M25.3,21.9
	c0-0.5,0.4-0.9,0.9-0.9h5.6c0.5,0,0.9,0.4,0.9,0.9c0,0.5-0.4,0.9-0.9,0.9h-5.6C25.7,22.9,25.3,22.4,25.3,21.9 M23.8,13.5
	c0.2,0,0.3,0.1,0.6,0.4c0.4,0.4,0.9,1.1,2,1.1c1.1,0,1.7-0.7,2-1.1c0.3-0.4,0.4-0.4,0.6-0.4c0.2,0,0.3,0.1,0.6,0.4
	c0.4,0.4,0.9,1.1,2,1.1c1.1,0,1.7-0.7,2-1.1c0.3-0.4,0.4-0.4,0.6-0.5c0.1,0.1,0.4,0.4,0.4,0.8c-0.3,0.6-1.8,2.8-3.3,4.8h-4.6
	c-1.4-2-3-4.2-3.3-4.8C23.5,13.9,23.7,13.6,23.8,13.5 M6.6,17.3c0-1,0.8-1.9,1.9-1.9h13.4c0.4,0.7,1.2,1.9,2.8,4.2
	c-0.8,0.5-1.3,1.4-1.3,2.4c0,0.8,0.4,1.6,0.9,2.1c-5,3.6-10.3,8.7-10.3,13.8c0,1.4,0.2,2.7,0.6,3.7H6.6V17.3z M55.1,44.3
	c0,1.5-1.3,2.8-2.8,2.8H5.7c-1.5,0-2.8-1.3-2.8-2.8v-0.9h21.6c0.4,1.1,1.4,1.9,2.6,1.9h3.7c1.2,0,2.3-0.8,2.6-1.9h21.6V44.3z
	 M29.9,37.8h-3.7c-0.5,0-0.9,0.4-0.9,0.9s0.4,0.9,0.9,0.9h1.9v0.9c0,0.5,0.4,0.9,0.9,0.9c0.5,0,0.9-0.4,0.9-0.9v-0.9
	c1.5,0,2.8-1.3,2.8-2.8c0-1.5-1.3-2.8-2.8-2.8h-1.9c-0.5,0-0.9-0.4-0.9-0.9c0-0.5,0.4-0.9,0.9-0.9h3.7c0.5,0,0.9-0.4,0.9-0.9
	c0-0.5-0.4-0.9-0.9-0.9h-1.9v-0.9c0-0.5-0.4-0.9-0.9-0.9c-0.5,0-0.9,0.4-0.9,0.9v0.9c-1.5,0-2.8,1.3-2.8,2.8c0,1.5,1.3,2.8,2.8,2.8
	h1.9c0.5,0,0.9,0.4,0.9,0.9C30.9,37.4,30.4,37.8,29.9,37.8"/>
</svg>
