<?xml version="1.0" encoding="utf-8"?>
<!-- Generator: Adobe Illustrator 22.0.1, SVG Export Plug-In . SVG Version: 6.00 Build 0)  -->
<svg version="1.1" id="Layer_1" xmlns="http://www.w3.org/2000/svg" xmlns:xlink="http://www.w3.org/1999/xlink" x="0px" y="0px"
	 viewBox="0 0 58 58" style="enable-background:new 0 0 58 58;" xml:space="preserve">
<style type="text/css">
	.st0{fill:url(#SVGID_1_);}
	.st1{fill:url(#SVGID_2_);}
	.st2{fill:url(#SVGID_3_);}
	.st3{fill:url(#SVGID_4_);}
	.st4{fill:url(#SVGID_5_);}
	.st5{fill:url(#SVGID_6_);}
</style>
<g>
	<linearGradient id="SVGID_1_" gradientUnits="userSpaceOnUse" x1="4.7066" y1="39.704" x2="55.2066" y2="38.204">
		<stop  offset="0" style="stop-color:#009729"/>
		<stop  offset="1" style="stop-color:#0070BE"/>
	</linearGradient>
	<path class="st0" d="M5,46.7h9c0.6,0,1-0.4,1-1V33.1c0-0.3-0.1-0.6-0.3-0.8c-0.2-0.2-0.5-0.3-0.8-0.2c-3,0.4-6,0.6-8.9,0.6
		c-0.6,0-1,0.4-1,1v12C4,46.3,4.4,46.7,5,46.7z M6,34.7c2.3,0,4.6-0.2,7-0.4v10.5H6V34.7z"/>
	<linearGradient id="SVGID_2_" gradientUnits="userSpaceOnUse" x1="4.6756" y1="38.6624" x2="55.1756" y2="37.1624">
		<stop  offset="0" style="stop-color:#009729"/>
		<stop  offset="1" style="stop-color:#0070BE"/>
	</linearGradient>
	<path class="st1" d="M26.7,29.3c-2.8,0.9-5.8,1.7-8.9,2.2c-0.5,0.1-0.8,0.5-0.8,1v13.2c0,0.6,0.4,1,1,1h9c0.6,0,1-0.4,1-1V30.3
		c0-0.3-0.2-0.6-0.4-0.8C27.3,29.3,27,29.2,26.7,29.3z M26,44.7h-7V33.4c2.4-0.5,4.7-1,7-1.7V44.7z"/>
	<linearGradient id="SVGID_3_" gradientUnits="userSpaceOnUse" x1="4.6033" y1="36.2285" x2="55.1033" y2="34.7285">
		<stop  offset="0" style="stop-color:#009729"/>
		<stop  offset="1" style="stop-color:#0070BE"/>
	</linearGradient>
	<path class="st2" d="M39.5,23.8c-2.8,1.6-5.8,3-8.9,4.2c-0.4,0.1-0.6,0.5-0.6,0.9v16.9c0,0.6,0.4,1,1,1h9c0.6,0,1-0.4,1-1V24.6
		c0-0.4-0.2-0.7-0.5-0.9C40.2,23.6,39.8,23.6,39.5,23.8z M39,44.7h-7V29.5c2.4-1,4.7-2,7-3.2V44.7z"/>
	<linearGradient id="SVGID_4_" gradientUnits="userSpaceOnUse" x1="4.4773" y1="31.985" x2="54.9773" y2="30.485">
		<stop  offset="0" style="stop-color:#009729"/>
		<stop  offset="1" style="stop-color:#0070BE"/>
	</linearGradient>
	<path class="st3" d="M53.4,14.5c-0.4-0.2-0.8-0.1-1.1,0.2c-2.7,2.5-5.7,4.7-8.9,6.8c-0.3,0.2-0.5,0.5-0.5,0.8v23.5c0,0.6,0.4,1,1,1
		h9c0.6,0,1-0.4,1-1V15.4C54,15,53.8,14.6,53.4,14.5z M52,44.7h-7V22.8c2.4-1.6,4.8-3.3,7-5.2V44.7z"/>
	<linearGradient id="SVGID_5_" gradientUnits="userSpaceOnUse" x1="3.9753" y1="15.0843" x2="54.4753" y2="13.5843">
		<stop  offset="0" style="stop-color:#009729"/>
		<stop  offset="1" style="stop-color:#0070BE"/>
	</linearGradient>
	<path class="st4" d="M5,24.8c17.1,0,33.6-6,46.8-17l-0.1,1.5c0,0.3,0.1,0.5,0.2,0.7c0.2,0.2,0.4,0.3,0.7,0.4l0.1,0c0,0,0.1,0,0.1,0
		c0.5,0,0.9-0.4,1-0.9l0.4-4c0-0.3-0.1-0.5-0.2-0.7c-0.2-0.2-0.4-0.3-0.7-0.4l-0.1,0c0,0,0,0-0.1,0c0,0,0,0,0,0L49.1,4
		c-0.3,0-0.5,0.1-0.7,0.2c-0.2,0.2-0.3,0.4-0.4,0.7L48,5c0,0.5,0.4,1,0.9,1.1l1.4,0.1C37.7,16.8,21.6,22.7,5,22.7c-0.6,0-1,0.4-1,1
		v0.1C4,24.3,4.4,24.8,5,24.8z"/>
	<linearGradient id="SVGID_6_" gradientUnits="userSpaceOnUse" x1="5.1439" y1="54.4264" x2="55.6439" y2="52.9264">
		<stop  offset="0" style="stop-color:#009729"/>
		<stop  offset="1" style="stop-color:#0070BE"/>
	</linearGradient>
	<path class="st5" d="M53,52.7H5c-0.6,0-1,0.5-1,1.1s0.4,1,1,1h48c0.6,0,1-0.5,1-1.1S53.6,52.7,53,52.7z"/>
</g>
</svg>
