<?xml version="1.0" encoding="utf-8"?>
<!-- Generator: Adobe Illustrator 22.0.1, SVG Export Plug-In . SVG Version: 6.00 Build 0)  -->
<svg version="1.1" id="Layer_1" xmlns="http://www.w3.org/2000/svg" xmlns:xlink="http://www.w3.org/1999/xlink" x="0px" y="0px"
	 viewBox="0 0 58 58" style="enable-background:new 0 0 58 58;" xml:space="preserve">
<style type="text/css">
	.st0{fill:url(#SVGID_1_);}
</style>
<linearGradient id="SVGID_1_" gradientUnits="userSpaceOnUse" x1="5" y1="29" x2="53" y2="29">
	<stop  offset="0" style="stop-color:#009729"/>
	<stop  offset="1" style="stop-color:#0070BE"/>
</linearGradient>
<path class="st0" d="M52.6,8.2C52.1,7.9,41.9,1,29,1S5.9,7.9,5.4,8.2C5.2,8.4,5,8.7,5,9v22c0,17.1,22.7,25.6,23.7,25.9
	c0.1,0,0.2,0.1,0.3,0.1c0.1,0,0.2,0,0.3-0.1C30.3,56.6,53,48.1,53,31V9C53,8.7,52.8,8.4,52.6,8.2 M51,31c0,14.6-19.2,22.8-22,23.9
	C26.2,53.8,7,45.6,7,31V9.5C9.1,8.3,18.2,3,29,3s19.9,5.3,22,6.5V31z M15,27c0,7.7,6.3,14,14,14s14-6.3,14-14s-6.3-14-14-14
	S15,19.3,15,27 M41,27c0,6.6-5.4,12-12,12s-12-5.4-12-12s5.4-12,12-12S41,20.4,41,27 M28,21v1c-1.7,0-3,1.3-3,3c0,1.7,1.3,3,3,3h2
	c0.6,0,1,0.4,1,1s-0.4,1-1,1h-4c-0.6,0-1,0.4-1,1c0,0.6,0.4,1,1,1h2v1c0,0.6,0.4,1,1,1s1-0.4,1-1v-1c1.7,0,3-1.3,3-3
	c0-1.7-1.3-3-3-3h-2c-0.6,0-1-0.4-1-1c0-0.6,0.4-1,1-1h4c0.6,0,1-0.4,1-1c0-0.6-0.4-1-1-1h-2v-1c0-0.6-0.4-1-1-1S28,20.4,28,21"/>
</svg>
