<?xml version="1.0" encoding="utf-8"?>
<!-- Generator: Adobe Illustrator 22.0.1, SVG Export Plug-In . SVG Version: 6.00 Build 0)  -->
<svg version="1.1" id="Layer_1" xmlns="http://www.w3.org/2000/svg" xmlns:xlink="http://www.w3.org/1999/xlink" x="0px" y="0px"
	 viewBox="0 0 58 58" style="enable-background:new 0 0 58 58;" xml:space="preserve">
<style type="text/css">
	.st0{fill:url(#SVGID_1_);}
</style>
<g>
	<linearGradient id="SVGID_1_" gradientUnits="userSpaceOnUse" x1="3" y1="29" x2="55" y2="29">
		<stop  offset="0" style="stop-color:#009729"/>
		<stop  offset="1" style="stop-color:#0070BE"/>
	</linearGradient>
	<path class="st0" d="M53,19H5c-1.1,0-2,0.9-2,2v24c0,1.1,0.9,2,2,2h48c1.1,0,2-0.9,2-2V21C55,19.9,54.1,19,53,19 M5,21h5.9
		c-0.4,3.1-2.9,5.5-5.9,5.9V21z M5,45v-5.9c3.1,0.4,5.5,2.9,5.9,5.9H5z M53,45h-5.9c0.4-3.1,2.9-5.5,5.9-5.9V45z M53,37.1
		c-4.2,0.5-7.5,3.8-7.9,7.9H12.9c-0.5-4.2-3.8-7.5-7.9-7.9v-8.1c4.2-0.5,7.5-3.8,7.9-7.9h32.1c0.5,4.2,3.8,7.5,7.9,7.9V37.1z
		 M53,26.9c-3.1-0.4-5.5-2.9-5.9-5.9H53V26.9z M8,17h42c0.6,0,1-0.4,1-1s-0.4-1-1-1H8c-0.6,0-1,0.4-1,1S7.4,17,8,17 M11,13h36
		c0.6,0,1-0.4,1-1c0-0.6-0.4-1-1-1H11c-0.6,0-1,0.4-1,1C10,12.6,10.4,13,11,13 M29,23c-5.5,0-10,4.5-10,10s4.5,10,10,10
		s10-4.5,10-10S34.5,23,29,23 M29,41c-4.4,0-8-3.6-8-8s3.6-8,8-8s8,3.6,8,8S33.4,41,29,41"/>
</g>
</svg>
