<?xml version="1.0" encoding="utf-8"?>
<!-- Generator: Adobe Illustrator 22.0.1, SVG Export Plug-In . SVG Version: 6.00 Build 0)  -->
<svg version="1.1" id="Layer_1" xmlns="http://www.w3.org/2000/svg" xmlns:xlink="http://www.w3.org/1999/xlink" x="0px" y="0px"
	 viewBox="0 0 58 58" style="enable-background:new 0 0 58 58;" xml:space="preserve">
<style type="text/css">
	.st0{fill:url(#SVGID_1_);}
</style>
<linearGradient id="SVGID_1_" gradientUnits="userSpaceOnUse" x1="1" y1="30" x2="57" y2="30">
	<stop  offset="0" style="stop-color:#009729"/>
	<stop  offset="1" style="stop-color:#0070BE"/>
</linearGradient>
<path class="st0" d="M44.5,16.1C40,9.8,32.8,6,25,6C11.8,6,1,16.8,1,30s10.8,24,24,24c7.8,0,15-3.8,19.5-10.1
	C51.5,43.1,57,37.2,57,30S51.5,16.9,44.5,16.1 M42,16.1c-3,0.2-5.8,1.4-8,3.3c-1-4.8-2.5-8.6-4.4-10.8C34.4,9.5,38.8,12.2,42,16.1
	 M25,8c2.9,0,5.7,4.9,7.1,12H17.9C19.4,12.6,22.3,8,25,8 M31.5,22c-1.6,2.3-2.5,5-2.5,8s0.9,5.7,2.5,8H17.6c-0.4-2.4-0.6-5.1-0.6-8
	c0-2.9,0.2-5.6,0.6-8H31.5z M20.5,8.5c-2.1,2.4-3.7,6.5-4.6,11.5H5.4C8.4,14.2,13.9,9.8,20.5,8.5 M3,30c0-2.8,0.5-5.5,1.5-8h11
	c-0.4,2.5-0.6,5.2-0.6,8s0.2,5.5,0.6,8h-11C3.5,35.5,3,32.8,3,30 M5.4,40h10.5c0.9,5,2.6,9.1,4.6,11.5C13.9,50.2,8.4,45.8,5.4,40
	 M25,52c-2.7,0-5.6-4.6-7.1-12h14.2C30.7,47.1,27.9,52,25,52 M29.5,51.5c1.9-2.3,3.5-6,4.4-10.8c2.2,1.9,5,3,8,3.3
	C38.8,47.8,34.4,50.5,29.5,51.5 M43,42c-6.6,0-12-5.4-12-12s5.4-12,12-12s12,5.4,12,12S49.6,42,43,42 M42,27h4c0.6,0,1-0.4,1-1
	c0-0.6-0.4-1-1-1h-2v-1c0-0.6-0.4-1-1-1c-0.6,0-1,0.4-1,1v1c-1.7,0-3,1.3-3,3c0,1.7,1.3,3,3,3h2c0.6,0,1,0.4,1,1c0,0.6-0.4,1-1,1h-4
	c-0.6,0-1,0.4-1,1s0.4,1,1,1h2v1c0,0.6,0.4,1,1,1c0.6,0,1-0.4,1-1v-1c1.7,0,3-1.3,3-3s-1.3-3-3-3h-2c-0.6,0-1-0.4-1-1
	C41,27.4,41.4,27,42,27"/>
</svg>
