<?xml version="1.0" encoding="utf-8"?>
<!-- Generator: Adobe Illustrator 22.0.1, SVG Export Plug-In . SVG Version: 6.00 Build 0)  -->
<svg version="1.1" id="Layer_1" xmlns="http://www.w3.org/2000/svg" xmlns:xlink="http://www.w3.org/1999/xlink" x="0px" y="0px"
	 viewBox="0 0 58 58" style="enable-background:new 0 0 58 58;" xml:space="preserve">
<style type="text/css">
	.st0{fill:url(#SVGID_1_);}
	.st1{fill:url(#SVGID_2_);}
</style>
<g>
	
		<linearGradient id="SVGID_1_" gradientUnits="userSpaceOnUse" x1="9" y1="29" x2="53.0454" y2="29" gradientTransform="matrix(1 0 0 -1 0 58)">
		<stop  offset="0" style="stop-color:#009729"/>
		<stop  offset="1" style="stop-color:#0070BE"/>
	</linearGradient>
	<path class="st0" d="M53,36c0-5.6-3.1-10.5-7.7-13.1c0,0,0,0,0.1,0c0.2,0,0.4-0.1,0.6-0.2c0.1,0,0.1,0,0.2-0.1
		c0.2-0.1,0.4-0.2,0.5-0.3c0.1,0,0.1-0.1,0.2-0.1c0.2-0.1,0.3-0.2,0.5-0.3c0.1-0.1,0.1-0.1,0.2-0.2c0.1-0.1,0.2-0.2,0.4-0.4
		c0.1-0.1,0.1-0.2,0.2-0.3c0.1-0.1,0.2-0.2,0.3-0.4c0.1-0.1,0.1-0.2,0.2-0.4c0.1-0.1,0.1-0.2,0.2-0.3c0.1-0.2,0.1-0.3,0.1-0.5
		c0-0.1,0.1-0.2,0.1-0.3c0.1-0.3,0.1-0.6,0.1-0.8l0,0l0,0c0-2.5-2-4.5-4.5-4.5h-3.3c0.5-0.7,0.8-1.6,0.8-2.5l0,0l0,0
		C42,9,40,7,37.5,7h-28C7,7,5,9,5,11.5c0,1.2,0.5,2.4,1.3,3.2s2,1.3,3.2,1.3h3.3c-0.5,0.7-0.8,1.6-0.8,2.5s0.3,1.8,0.8,2.5
		c-2.4,0.1-4.3,2.1-4.3,4.5c0,1.1,0.4,2,1,2.8c0.2,0.3,0.4,0.5,0.7,0.7c-1,0.8-1.7,2.1-1.7,3.5c0,0.7,0.2,1.4,0.5,2s0.7,1.1,1.2,1.5
		c-1,0.8-1.7,2.1-1.7,3.5c0,0.7,0.2,1.4,0.5,2s0.7,1.1,1.2,1.5c-1,0.8-1.7,2.1-1.7,3.5c0,0.6,0.1,1.2,0.4,1.8
		C9.5,49.9,11.1,51,13,51h28c0.1,0,0.2,0,0.2,0c1.2-0.1,2.2-0.6,3-1.3C49.4,47.3,53,42.1,53,36z M26.7,26.2
		c-0.1,0.2-0.3,0.3-0.4,0.5s-0.2,0.3-0.4,0.5c-0.2,0.3-0.4,0.5-0.5,0.8H13c-0.9,0-1.6-0.4-2.1-1.1c-0.3-0.4-0.4-0.9-0.4-1.4
		c0-1.4,1.1-2.5,2.5-2.5h3.5l0,0h14c-0.1,0-0.1,0.1-0.2,0.1c-0.4,0.3-0.8,0.5-1.2,0.8c-0.1,0.1-0.2,0.2-0.3,0.2
		c-0.2,0.2-0.4,0.3-0.6,0.5c-0.1,0.1-0.2,0.2-0.4,0.3c-0.3,0.3-0.5,0.5-0.8,0.8C26.9,25.9,26.8,26.1,26.7,26.2z M24,30.7
		c-0.1,0.2-0.2,0.4-0.2,0.6c-0.1,0.2-0.1,0.4-0.2,0.6s-0.1,0.5-0.2,0.7c0,0.2-0.1,0.4-0.1,0.5c-0.1,0.4-0.1,0.8-0.2,1.1
		c0,0.1,0,0.3,0,0.4c0,0.1,0,0.2,0,0.3H13c-1,0-1.9-0.6-2.3-1.5c-0.1-0.3-0.2-0.6-0.2-1c0-1.4,1.1-2.5,2.5-2.5l0,0h11.3
		C24.2,30.2,24.1,30.4,24,30.7z M26,45c0.1,0.1,0.1,0.1,0.2,0.2c0.8,1,1.7,1.9,2.6,2.6c0.1,0,0.1,0.1,0.2,0.1c0.5,0.4,1,0.7,1.5,1
		l0,0H13c-1,0-1.9-0.6-2.3-1.5c-0.1-0.3-0.2-0.6-0.2-1c0-1.4,1.1-2.5,2.5-2.5l0,0h12.4C25.6,44.3,25.8,44.7,26,45z M37.5,16h7
		c1.4,0,2.5,1.1,2.5,2.5S45.9,21,44.5,21h-28c-0.7,0-1.3-0.3-1.8-0.7c-0.5-0.5-0.7-1.1-0.7-1.8c0-1.4,1.1-2.5,2.5-2.5l0,0H37.5
		L37.5,16z M7,11.5C7,10.1,8.1,9,9.5,9h28c1.4,0,2.5,1.1,2.5,2.5S38.9,14,37.5,14h-28c-0.7,0-1.3-0.3-1.8-0.7
		C7.3,12.8,7,12.2,7,11.5z M23.1,37.3c0,0.1,0,0.3,0,0.4c0,0.4,0.1,0.8,0.2,1.1c0,0.2,0.1,0.4,0.1,0.5c0.1,0.2,0.1,0.5,0.2,0.7
		s0.1,0.4,0.2,0.6c0.1,0.2,0.2,0.4,0.2,0.6c0.1,0.2,0.2,0.4,0.3,0.6H13c-1,0-1.9-0.6-2.3-1.5c-0.1-0.3-0.2-0.6-0.2-1
		c0-1.4,1.1-2.5,2.5-2.5l0,0h10C23.1,37.1,23.1,37.2,23.1,37.3z M45.5,46.6c-0.3,0.2-0.7,0.4-1,0.6c-0.1,0-0.1,0.1-0.2,0.1
		c-0.4,0.2-0.7,0.4-1.1,0.5c-0.4,0.2-0.7,0.3-1.1,0.4c0,0-0.1,0-0.1,0.1c-0.4,0.1-0.7,0.2-1.1,0.3c-0.1,0-0.1,0-0.2,0
		c-0.3,0.1-0.6,0.1-0.9,0.1C39.2,48.9,38.6,49,38,49c-0.4,0-0.8,0-1.2-0.1c-0.1,0-0.2,0-0.3,0c-0.3,0-0.7-0.1-1-0.2
		c-0.1,0-0.3-0.1-0.4-0.1c-0.2-0.1-0.4-0.1-0.7-0.2c-0.2-0.1-0.4-0.1-0.5-0.2c-0.2-0.1-0.3-0.1-0.4-0.2c-0.3-0.1-0.7-0.3-1-0.4
		c-0.1,0-0.2-0.1-0.3-0.1c-0.2-0.1-0.4-0.2-0.6-0.3c-0.1,0-0.1-0.1-0.2-0.1c-0.4-0.2-0.7-0.4-1-0.7c-0.1-0.1-0.2-0.1-0.3-0.2
		c-0.2-0.1-0.3-0.3-0.5-0.4c-0.1-0.1-0.2-0.2-0.3-0.3c-0.2-0.2-0.5-0.5-0.7-0.7c-0.1-0.1-0.2-0.2-0.3-0.4c-0.1-0.1-0.3-0.3-0.4-0.5
		l0,0l0,0c-0.1-0.1-0.2-0.2-0.3-0.4c-0.2-0.3-0.4-0.5-0.5-0.8c-0.1-0.1-0.2-0.3-0.3-0.4c-0.1-0.2-0.2-0.4-0.3-0.5
		c-0.1-0.1-0.1-0.3-0.2-0.4c-0.1-0.3-0.3-0.6-0.4-0.9c-0.1-0.1-0.1-0.3-0.2-0.4c-0.1-0.2-0.1-0.4-0.2-0.6c-0.1-0.2-0.1-0.4-0.1-0.6
		c0-0.2-0.1-0.3-0.1-0.5c-0.1-0.3-0.1-0.6-0.1-1c0-0.1,0-0.2,0-0.4c0-0.4-0.1-0.7-0.1-1.1l0,0l0,0c0-0.4,0-0.7,0.1-1.1
		c0-0.1,0-0.2,0-0.4c0-0.3,0.1-0.6,0.1-1c0-0.2,0.1-0.3,0.1-0.5s0.1-0.4,0.1-0.6c0.1-0.2,0.1-0.4,0.2-0.6c0-0.1,0.1-0.3,0.2-0.4
		c0.1-0.3,0.3-0.7,0.4-1c0.1-0.1,0.1-0.2,0.2-0.4c0,0,0-0.1,0.1-0.1l0,0c0.1-0.1,0.2-0.3,0.2-0.4c0.1-0.1,0.1-0.2,0.2-0.3
		c0.2-0.3,0.4-0.6,0.6-0.9c0.1-0.1,0.2-0.2,0.2-0.3l0,0l0,0c0.1-0.2,0.3-0.3,0.4-0.5c0.1-0.1,0.2-0.2,0.3-0.3
		c0.3-0.3,0.5-0.5,0.8-0.8c0.1-0.1,0.2-0.1,0.2-0.2c0.2-0.2,0.4-0.3,0.5-0.4s0.1-0.1,0.2-0.2c0.4-0.3,0.8-0.5,1.2-0.8
		c0,0,0.1,0,0.1-0.1c0.2-0.1,0.4-0.2,0.6-0.3c0.1,0,0.2-0.1,0.2-0.1c0.4-0.2,0.7-0.3,1.1-0.5c0.1,0,0.2-0.1,0.3-0.1
		c0.2-0.1,0.4-0.1,0.6-0.2c0.2-0.1,0.4-0.1,0.6-0.1c0.2,0,0.4-0.1,0.6-0.1c0.3-0.1,0.6-0.1,0.9-0.1c0.1,0,0.2,0,0.4,0
		c0.4,0,0.7-0.1,1.1-0.1l0,0c0.9,0,1.8,0.1,2.6,0.3h0.1c0.4,0.1,0.8,0.2,1.2,0.3c0,0,0.1,0,0.1,0.1c0.3,0.1,0.6,0.2,0.9,0.4l0,0
		c0,0,0.1,0,0.2,0.1c0.4,0.2,0.7,0.4,1.1,0.5c0.1,0,0.1,0.1,0.2,0.1c0.3,0.2,0.7,0.4,1,0.6C48.8,27.7,51,31.6,51,36
		S48.8,44.3,45.5,46.6z"/>
	
		<linearGradient id="SVGID_2_" gradientUnits="userSpaceOnUse" x1="9" y1="22.05" x2="53.0454" y2="22.05" gradientTransform="matrix(1 0 0 -1 0 58)">
		<stop  offset="0" style="stop-color:#009729"/>
		<stop  offset="1" style="stop-color:#0070BE"/>
	</linearGradient>
	<path class="st1" d="M39.1,34.9l-1.7-0.4c-1.2-0.2-2-1-2-1.8c0-1,1.2-1.9,2.6-1.9s2.6,0.9,2.6,1.9c0,0.6,0.5,1,1,1s1-0.5,1-1
		c0-1.9-1.6-3.5-3.7-3.9v-1.2c0-0.6-0.5-1.1-1-1.1s-1,0.5-1,1.1v1.2c-2.1,0.4-3.7,2-3.7,3.9c0,1.9,1.6,3.5,3.7,3.9l1.7,0.4
		c1.3,0.2,2.3,1.1,2.3,2.1c0,1.2-1.4,2.2-3,2.2s-3-1-3-2.2c0-0.6-0.5-1-1-1s-1,0.5-1,1c0,2.1,1.7,3.8,4,4.2v1.1c0,0.6,0.5,1,1,1
		s1-0.5,1-1v-1.1c2.3-0.4,4-2.1,4-4.2C43.1,37,41.4,35.3,39.1,34.9z"/>
</g>
</svg>
